<svg width="75.5906" height="75.5906" viewBox="0 0 20 20" xmlns="http://www.w3.org/2000/svg" xmlns:xlink="http://www.w3.org/1999/xlink" id="svg8" overflow="hidden"><defs id="defs2"></defs><g id="layer1"><path d="M18.6366 15.2559C18.6366 17.6772 14.7109 19.6401 9.86828 19.6401 5.02567 19.6401 1.09996 17.6772 1.09996 15.2559L1.16596 12.508 18.5627 12.5935Z" id="path1014" stroke-width="0.241646" fill="#999999"/><path d="M18.6196 12.762C18.6196 15.1833 14.6939 17.1462 9.85126 17.1462 5.00866 17.1462 1.08295 15.1833 1.08295 12.762 1.08295 10.3407 5.00866 8.37787 9.85126 8.37787 14.6939 8.37787 18.6196 10.3407 18.6196 12.762Z" id="path1014-0" stroke-width="0.241646" fill="#CCCCCC"/><path d="M6.31523 12.0129 6.58913 13.0981 13.0335 13.0981 13.4524 11.973Z" id="path1032" stroke="#000000" stroke-width="0.141955"/><path d="M8.73453 3.71481 8.73453 12.8941 11.1093 12.8941 11.1093 3.76048Z" id="path1034" stroke-width="0.127871" fill="#999999"/><path d="M9.91137 0.354217 6.99781 0.385437C5.69877 0.399293 5.28528 1.26892 5.28528 2.46384 5.28528 4.52741 7.40197 6.20033 10.013 6.20033 12.6241 6.20033 14.7408 4.52741 14.7408 2.46384 14.7408 1.39649 14.2998 0.400317 13.1648 0.388433ZM7.36968 1.34547 13.0377 1.34547C13.0377 1.34547 11.0551 2.51479 10.013 2.51479 8.97088 2.51479 7.36968 1.34547 7.36968 1.34547Z" id="path1036" stroke-width="0.268989" fill="#FF2A2A"/></g></svg>